/* XPM */
static char * hilite_select_xpm[] = {
"14 14 2 1",
" 	c None",
".	c #DEDEDE",
"              ",
"              ",
"              ",
"              ",
"              ",
"        ..... ",
"        .   . ",
"        . . . ",
"        .   . ",
"        ..... ",
"              ",
"              ",
"              ",
"              "};
