/* XPM */
static char * min_pressed_xpm[] = {
"14 14 4 1",
" 	c None",
".	c #000000",
"+	c #FCFCFC",
"@	c #777878",
"..............",
"..............",
"..............",
"..............",
"..............",
"..............",
"+++++++.......",
"@@@@@@@.......",
"..............",
"..............",
"..............",
"..............",
"..............",
".............."};
