/* XPM */
static char * unselect_xpm[] = {
"14 14 2 1",
" 	c None",
".	c #779DAE",
"              ",
"              ",
"              ",
"              ",
"              ",
"        ..... ",
"        .   . ",
"        .   . ",
"        .   . ",
"        ..... ",
"              ",
"              ",
"              ",
"              "};
