/* XPM */
static char * close_unfocus_xpm[] = {
"14 14 20 1",
" 	c None",
".	c #111011",
"+	c #101011",
"@	c #111010",
"#	c #101010",
"$	c #0F0F10",
"%	c #0F0F0F",
"&	c #0E0F0F",
"*	c #0F0E0F",
"=	c #0E0E0E",
"-	c #040404",
";	c #030404",
">	c #030303",
",	c #030302",
"'	c #020202",
")	c #030202",
"!	c #020201",
"~	c #010102",
"{	c #010101",
"]	c #000000",
".+@##$$%%%&*==",
"-;>>>,')''!~{{",
"]]]]]]]]]]]]]]",
"]]]]]]]]]]]]]]",
"]]]]]]]]]]]]]]",
"]]]]]]]]]]]]]]",
"]]]]]]]]]]]]]]",
"]]]]]]]]]]]]]]",
"]]]]]]]]]]]]]]",
"]]]]]]]]]]]]]]",
"]]]]]]]]]]]]]]",
"]]]]]]]]]]]]]]",
"]]]]]]]]]]]]]]",
"]]]]]]]]]]]]]]"};
