/* XPM */
static char * hilite_xpm[] = {
"14 14 3 1",
" 	c None",
".	c #587480",
"+	c #000000",
"..............",
"++++++++++++++",
"++++++++++++++",
"++++++++++++++",
"++++++++++++++",
"++++++++++++++",
"++++++++++++++",
"++++++++++++++",
"++++++++++++++",
"++++++++++++++",
"++++++++++++++",
"++++++++++++++",
"++++++++++++++",
".............."};
