/* XPM */
static char * max_xpm[] = {
"14 14 4 1",
" 	c None",
".	c #000000",
"+	c #779DAE",
"@	c #3F3F3F",
"..............",
"..............",
"..............",
"..............",
"..............",
"..............",
"..+++++++.....",
"..@@@@@@@.....",
"..............",
"..............",
"..............",
"..............",
"..............",
".............."};
