/* XPM */
static char * stick_pressed_xpm[] = {
"14 14 4 1",
" 	c None",
".	c #000000",
"+	c #FFFFFF",
"@	c #777878",
"..............",
"..............",
"..............",
"..............",
"..............",
"..............",
"....+++++++...",
"....@@@@@@@...",
"..............",
"..............",
"..............",
"..............",
"..............",
".............."};
