/* XPM */
static char * cls_hvr_xpm[] = {
"21 21 120 2",
"  	c None",
". 	c #262626",
"+ 	c #272727",
"@ 	c #292929",
"# 	c #2A2A2A",
"$ 	c #2A2B2A",
"% 	c #29292A",
"& 	c #282827",
"* 	c #222322",
"= 	c #252525",
"- 	c #282727",
"; 	c #282828",
"> 	c #272827",
", 	c #272728",
"' 	c #282728",
") 	c #272828",
"! 	c #232323",
"~ 	c #202121",
"{ 	c #232222",
"] 	c #242524",
"^ 	c #252625",
"/ 	c #272626",
"( 	c #272726",
"_ 	c #262627",
": 	c #262726",
"< 	c #262727",
"[ 	c #272627",
"} 	c #252526",
"| 	c #252524",
"1 	c #212121",
"2 	c #1F1F1F",
"3 	c #222222",
"4 	c #242425",
"5 	c #252424",
"6 	c #222223",
"7 	c #202020",
"8 	c #242423",
"9 	c #262526",
"0 	c #201F1F",
"a 	c #010101",
"b 	c #202120",
"c 	c #202021",
"d 	c #222323",
"e 	c #171414",
"f 	c #3A1A1A",
"g 	c #480000",
"h 	c #4B0707",
"i 	c #212120",
"j 	c #212221",
"k 	c #020202",
"l 	c #4E0808",
"m 	c #660000",
"n 	c #880000",
"o 	c #212222",
"p 	c #242424",
"q 	c #282928",
"r 	c #292828",
"s 	c #080808",
"t 	c #431E1E",
"u 	c #680000",
"v 	c #8A0000",
"w 	c #411D1D",
"x 	c #292829",
"y 	c #292928",
"z 	c #232322",
"A 	c #282929",
"B 	c #090909",
"C 	c #5A0808",
"D 	c #6E0000",
"E 	c #780000",
"F 	c #760000",
"G 	c #232324",
"H 	c #2A2A29",
"I 	c #0A0A0A",
"J 	c #6C0000",
"K 	c #5A0909",
"L 	c #2B2B2B",
"M 	c #242324",
"N 	c #141414",
"O 	c #462020",
"P 	c #600000",
"Q 	c #640000",
"R 	c #461F1F",
"S 	c #151515",
"T 	c #2C2C2C",
"U 	c #2B2A2A",
"V 	c #292A29",
"W 	c #2A2A2B",
"X 	c #2B2B2C",
"Y 	c #0B0A0A",
"Z 	c #500909",
"` 	c #5A0000",
" .	c #5C0000",
"..	c #2C2D2C",
"+.	c #2D2C2D",
"@.	c #2B2C2B",
"#.	c #2C2C2B",
"$.	c #2C2D2D",
"%.	c #303030",
"&.	c #262222",
"*.	c #441F1F",
"=.	c #4A0000",
"-.	c #4D0707",
";.	c #2D2D2D",
">.	c #1E1E1E",
",.	c #131313",
"'.	c #2D2E2E",
").	c #2D2D2E",
"!.	c #2E2E2D",
"~.	c #2E2D2D",
"{.	c #2E2E2E",
"].	c #2E2D2E",
"^.	c #2A292A",
"/.	c #2D2E2D",
"(.	c #2C2C2D",
"_.	c #2B2C2C",
":.	c #232423",
"<.	c #232424",
"[.	c #242323",
"}.	c #252425",
". + @ @ # # # # # # $ # # # # # # % @ & . ",
"* = + - ; > & , ' ; ' ' , ' ; ) ; ; + = ! ",
"~ { ] ^ . / ( _ : < + / _ + + [ ( } | ! 1 ",
"2 3 4 = . . _ ( _ ( . _ _ [ : [ . = 5 6 2 ",
"7 3 8 = . . . . . : . : . . . _ . 9 4 * 7 ",
"0 3 = . . ( + + a a a a + + + + . . = 3 b ",
"c d ^ + [ ; ) e f g h f e ' & ' + + . ! i ",
"j ! . - , ; k l m n n m l k ; @ , > < ! o ",
"3 p + q r s t u n v v n u w s @ x y > p z ",
"d | ; A y B C D E F F E D C B # @ @ ; = G ",
"! 9 ; % H I C u J J J J u K I L # # @ . M ",
"| < H # # N O P Q Q Q Q P R S T U U V / 4 ",
"= - W L X T Y Z `  . .` Z Y ..+.@.@.L , . ",
"^ ' L #.T $.%.&.*.=.-.*.&.%.;.;.T T L ; / ",
"+ r L T ..;.;.;.>.,.,.>.;.;.;.;.$.T L @ + ",
". V X $.'.;.).!.!.~.).).{.).].).{.;.X ^.+ ",
"- H L /.;.~.).;./.~.;.).'.).).!.]./.T % ) ",
". ; # L T T T T T T (.T T +...(.T _.$ q / ",
"p } / ; A @ y y @ A y x @ @ @ @ @ ; , . 4 ",
"M 8 :.<.M ! p p :.M p <.[.M M M p p p <.p ",
"5 5 p 5 }.] p p p | 5 }.| ] }.| p 5 ] }.= "};
