/* XPM */
static char * cls_p_xpm[] = {
"21 21 105 2",
"  	c None",
". 	c #262626",
"+ 	c #272727",
"@ 	c #292929",
"# 	c #2A2A2A",
"$ 	c #2A2B2A",
"% 	c #29292A",
"& 	c #282827",
"* 	c #222322",
"= 	c #252525",
"- 	c #282727",
"; 	c #282828",
"> 	c #272827",
", 	c #272728",
"' 	c #282728",
") 	c #272828",
"! 	c #232323",
"~ 	c #202121",
"{ 	c #232222",
"] 	c #242524",
"^ 	c #252625",
"/ 	c #272626",
"( 	c #272726",
"_ 	c #262627",
": 	c #262726",
"< 	c #262727",
"[ 	c #272627",
"} 	c #252526",
"| 	c #252524",
"1 	c #212121",
"2 	c #1F1F1F",
"3 	c #222222",
"4 	c #242425",
"5 	c #252424",
"6 	c #222223",
"7 	c #202020",
"8 	c #242423",
"9 	c #262526",
"0 	c #201F1F",
"a 	c #010101",
"b 	c #202120",
"c 	c #202021",
"d 	c #222323",
"e 	c #050505",
"f 	c #0F0F0F",
"g 	c #161616",
"h 	c #212120",
"i 	c #212221",
"j 	c #030303",
"k 	c #191919",
"l 	c #212222",
"m 	c #242424",
"n 	c #282928",
"o 	c #292828",
"p 	c #080808",
"q 	c #151515",
"r 	c #2E2E2E",
"s 	c #323232",
"t 	c #292829",
"u 	c #292928",
"v 	c #232322",
"w 	c #282929",
"x 	c #090909",
"y 	c #2D2D2D",
"z 	c #333333",
"A 	c #363636",
"B 	c #232324",
"C 	c #2A2A29",
"D 	c #0A0A0A",
"E 	c #343434",
"F 	c #353535",
"G 	c #2B2B2B",
"H 	c #242324",
"I 	c #141414",
"J 	c #1C1C1C",
"K 	c #2C2C2C",
"L 	c #303030",
"M 	c #313131",
"N 	c #1B1B1B",
"O 	c #2B2A2A",
"P 	c #292A29",
"Q 	c #2A2A2B",
"R 	c #2B2B2C",
"S 	c #0C0C0C",
"T 	c #2C2D2C",
"U 	c #2D2C2D",
"V 	c #2B2C2B",
"W 	c #2C2C2B",
"X 	c #2C2D2D",
"Y 	c #121212",
"Z 	c #1E1E1E",
"` 	c #131313",
" .	c #2D2E2E",
"..	c #2D2D2E",
"+.	c #2E2E2D",
"@.	c #2E2D2D",
"#.	c #2E2D2E",
"$.	c #2A292A",
"%.	c #2D2E2D",
"&.	c #2C2C2D",
"*.	c #2B2C2C",
"=.	c #232423",
"-.	c #232424",
";.	c #242323",
">.	c #252425",
". + @ @ # # # # # # $ # # # # # # % @ & . ",
"* = + - ; > & , ' ; ' ' , ' ; ) ; ; + = ! ",
"~ { ] ^ . / ( _ : < + / _ + + [ ( } | ! 1 ",
"2 3 4 = . . _ ( _ ( . _ _ [ : [ . = 5 6 2 ",
"7 3 8 = . . . . . : . : . . . _ . 9 4 * 7 ",
"0 3 = . . ( + + a a a a + + + + . . = 3 b ",
"c d ^ + [ ; ) e f g g f e ' & ' + + . ! h ",
"i ! . - , ; j k 3 . . 3 k j ; @ , > < ! l ",
"3 m + n o p q + r s s r + q p @ t u > m v ",
"d | ; w u x 1 y z A A z y 1 x # @ @ ; = B ",
"! 9 ; % C D m r E F F E r = D G # # @ . H ",
"| < C # # I J K L M M L K N q K O O P / 4 ",
"= - Q G R K S ! # G G # ! S T U V V G , . ",
"^ ' G W K X L Y J { { J Y L y y K K G ; / ",
"+ o G K T y y y Z ` ` Z y y y y X K G @ + ",
". P R X  .y ..+.+.@.....r ..#...r y R $.+ ",
"- C G %.y @...y %.@.y .. .....+.#.%.K % ) ",
". ; # G K K K K K K &.K K U T &.K *.$ n / ",
"m } / ; w @ u u @ w u t @ @ @ @ @ ; , . 4 ",
"H 8 =.-.H ! m m =.H m -.;.H H H m m m -.m ",
"5 5 m 5 >.] m m m | 5 >.| ] >.| m 5 ] >.= "};
