/* XPM */
static char * max_nml_xpm[] = {
"21 21 117 2",
"  	c None",
". 	c #262626",
"+ 	c #272727",
"@ 	c #292929",
"# 	c #2A2A2A",
"$ 	c #2A2B2A",
"% 	c #29292A",
"& 	c #282827",
"* 	c #222322",
"= 	c #252525",
"- 	c #282727",
"; 	c #282828",
"> 	c #272827",
", 	c #272728",
"' 	c #282728",
") 	c #272828",
"! 	c #232323",
"~ 	c #202121",
"{ 	c #232222",
"] 	c #242524",
"^ 	c #252625",
"/ 	c #272626",
"( 	c #272726",
"_ 	c #262627",
": 	c #262726",
"< 	c #262727",
"[ 	c #272627",
"} 	c #252526",
"| 	c #252524",
"1 	c #212121",
"2 	c #1F1F1F",
"3 	c #222222",
"4 	c #242425",
"5 	c #252424",
"6 	c #222223",
"7 	c #202020",
"8 	c #242423",
"9 	c #262526",
"0 	c #201F1F",
"a 	c #010101",
"b 	c #202120",
"c 	c #202021",
"d 	c #222323",
"e 	c #181818",
"f 	c #525252",
"g 	c #7E7E7E",
"h 	c #212120",
"i 	c #212221",
"j 	c #030303",
"k 	c #808080",
"l 	c #AFAFAF",
"m 	c #EEEEEE",
"n 	c #212222",
"o 	c #242424",
"p 	c #282928",
"q 	c #292828",
"r 	c #080808",
"s 	c #595959",
"t 	c #ABABAB",
"u 	c #EFEFEF",
"v 	c #575757",
"w 	c #292829",
"x 	c #292928",
"y 	c #232322",
"z 	c #282929",
"A 	c #090909",
"B 	c #868686",
"C 	c #C2C2C2",
"D 	c #B9B9B9",
"E 	c #232324",
"F 	c #2A2A29",
"G 	c #0A0A0A",
"H 	c #999999",
"I 	c #9D9D9D",
"J 	c #2B2B2B",
"K 	c #242324",
"L 	c #141414",
"M 	c #4E4E4E",
"N 	c #828282",
"O 	c #858585",
"P 	c #4C4C4C",
"Q 	c #151515",
"R 	c #2C2C2C",
"S 	c #2B2A2A",
"T 	c #292A29",
"U 	c #2A2A2B",
"V 	c #2B2B2C",
"W 	c #0C0C0C",
"X 	c #5D5D5D",
"Y 	c #6D6D6D",
"Z 	c #6E6E6E",
"` 	c #2C2D2C",
" .	c #2D2C2D",
"..	c #2B2C2B",
"+.	c #2C2C2B",
"@.	c #2C2D2D",
"#.	c #303030",
"$.	c #1D1D1D",
"%.	c #3C3C3C",
"&.	c #505050",
"*.	c #2D2D2D",
"=.	c #1E1E1E",
"-.	c #131313",
";.	c #2D2E2E",
">.	c #2D2D2E",
",.	c #2E2E2D",
"'.	c #2E2D2D",
").	c #2E2E2E",
"!.	c #2E2D2E",
"~.	c #2A292A",
"{.	c #2D2E2D",
"].	c #2C2C2D",
"^.	c #2B2C2C",
"/.	c #232423",
"(.	c #232424",
"_.	c #242323",
":.	c #252425",
". + @ @ # # # # # # $ # # # # # # % @ & . ",
"* = + - ; > & , ' ; ' ' , ' ; ) ; ; + = ! ",
"~ { ] ^ . / ( _ : < + / _ + + [ ( } | ! 1 ",
"2 3 4 = . . _ ( _ ( . _ _ [ : [ . = 5 6 2 ",
"7 3 8 = . . . . . : . : . . . _ . 9 4 * 7 ",
"0 3 = . . ( + + a a a a + + + + . . = 3 b ",
"c d ^ + [ ; ) e f g g f e ' & ' + + . ! h ",
"i ! . - , ; j k l m m l k j ; @ , > < ! n ",
"3 o + p q r s t m u u m t v r @ w x > o y ",
"d | ; z x A B t C D D C t B A # @ @ ; = E ",
"! 9 ; % F G g H I I I I H g G J # # @ . K ",
"| < F # # L M N O O O O N P Q R S S T / 4 ",
"= - U J V R W X Y Z Z Y X W `  .....J , . ",
"^ ' J +.R @.#.$.%.&.&.%.$.#.*.*.R R J ; / ",
"+ q J R ` *.*.*.=.-.-.=.*.*.*.*.@.R J @ + ",
". T V @.;.*.>.,.,.'.>.>.).>.!.>.).*.V ~.+ ",
"- F J {.*.'.>.*.{.'.*.>.;.>.>.,.!.{.R % ) ",
". ; # J R R R R R R ].R R  .` ].R ^.$ p / ",
"o } / ; z @ x x @ z x w @ @ @ @ @ ; , . 4 ",
"K 8 /.(.K ! o o /.K o (._.K K K o o o (.o ",
"5 5 o 5 :.] o o o | 5 :.| ] :.| o 5 ] :.= "};
