/* XPM */
static char * menuframe_xpm[] = {
"21 21 35 1",
" 	c None",
".	c #330101",
"+	c #3C0202",
"@	c #090909",
"#	c #0A0A0A",
"$	c #0B0B0B",
"%	c #0D0D0D",
"&	c #0E0E0E",
"*	c #0F0F0F",
"=	c #111111",
"-	c #141414",
";	c #161616",
">	c #191919",
",	c #1C1C1C",
"'	c #340202",
")	c #0C0C0C",
"!	c #131313",
"~	c #151515",
"{	c #181818",
"]	c #1B1B1B",
"^	c #1E1E1E",
"/	c #340201",
"(	c #101010",
"_	c #121212",
":	c #171717",
"<	c #1A1A1A",
"[	c #1D1D1D",
"}	c #1F1F1F",
"|	c #350101",
"1	c #350102",
"2	c #350202",
"3	c #3D0202",
"4	c #350201",
"5	c #3E0202",
"6	c #3E0302",
".+@@@@@@@@##$%&*=-;>,",
"'+@@@@@@@@#$)%*=!~{]^",
"/+@@@@@@@#$)%&(_-:<[}",
"|+@@@@@@##$%&*=-;>,}}",
"1+@@@@@@#$)%*=!~{]^}}",
"2+@@@@@#$)%&(_-:<[}}}",
"|+@@@@##$)&*=!;>,}}}}",
"23@@@@#$)%*=!~{]^}}}^",
"23@@@#$)%&(_-:<[}}}^[",
"43@@#$$)&*=!;{,}}}}^,",
"|3@@#$)%*=!~{]^}}}^[]",
"13@#$)%&(_-:>[}}}^[,>",
"13##$%&*=!;{]}}}}^,<:",
"43#$)%*(_~{]^}}}^[]{-",
"13$)%&(_-:>[}}}^[,>~(",
"15$%&*=!;{,}}}}^[<:_$",
"|5)%*=_~{<^}}}^[]{-&@",
"15%&(_-;>[}}}}[,>~(@@",
"16&*=!;{]}}}}^[<:_)@@",
"15*(!~{<^}}}^[]{-&@@@",
"|6(_-;>[}}}^^,>;(@@@@"};
