/* XPM */
static char * menu_hvr_xpm[] = {
"21 21 99 2",
"  	c None",
". 	c #262626",
"+ 	c #272727",
"@ 	c #292929",
"# 	c #2A2A2A",
"$ 	c #2A2B2A",
"% 	c #29292A",
"& 	c #282827",
"* 	c #222322",
"= 	c #252525",
"- 	c #282727",
"; 	c #282828",
"> 	c #272827",
", 	c #272728",
"' 	c #282728",
") 	c #272828",
"! 	c #232323",
"~ 	c #202121",
"{ 	c #232222",
"] 	c #242524",
"^ 	c #252625",
"/ 	c #272626",
"( 	c #272726",
"_ 	c #262627",
": 	c #262726",
"< 	c #262727",
"[ 	c #272627",
"} 	c #252526",
"| 	c #252524",
"1 	c #212121",
"2 	c #1F1F1F",
"3 	c #222222",
"4 	c #242425",
"5 	c #252424",
"6 	c #222223",
"7 	c #202020",
"8 	c #242423",
"9 	c #262526",
"0 	c #201F1F",
"a 	c #010101",
"b 	c #202120",
"c 	c #202021",
"d 	c #222323",
"e 	c #111111",
"f 	c #1C1C1C",
"g 	c #131313",
"h 	c #191919",
"i 	c #212120",
"j 	c #212221",
"k 	c #020202",
"l 	c #1B1B1B",
"m 	c #393939",
"n 	c #212222",
"o 	c #242424",
"p 	c #282928",
"q 	c #292828",
"r 	c #080808",
"s 	c #3A3A3A",
"t 	c #292829",
"u 	c #292928",
"v 	c #232322",
"w 	c #282929",
"x 	c #090909",
"y 	c #303030",
"z 	c #2F2F2F",
"A 	c #232324",
"B 	c #2A2A29",
"C 	c #0A0A0A",
"D 	c #2B2B2B",
"E 	c #242324",
"F 	c #141414",
"G 	c #151515",
"H 	c #2C2C2C",
"I 	c #2B2A2A",
"J 	c #292A29",
"K 	c #2A2A2B",
"L 	c #2B2B2C",
"M 	c #1E1E1E",
"N 	c #2C2D2C",
"O 	c #2D2C2D",
"P 	c #2B2C2B",
"Q 	c #2C2C2B",
"R 	c #2C2D2D",
"S 	c #1A1A1A",
"T 	c #2D2D2D",
"U 	c #2D2E2E",
"V 	c #2D2D2E",
"W 	c #2E2E2D",
"X 	c #2E2D2D",
"Y 	c #2E2E2E",
"Z 	c #2E2D2E",
"` 	c #2A292A",
" .	c #2D2E2D",
"..	c #2C2C2D",
"+.	c #2B2C2C",
"@.	c #232423",
"#.	c #232424",
"$.	c #242323",
"%.	c #252425",
". + @ @ # # # # # # $ # # # # # # % @ & . ",
"* = + - ; > & , ' ; ' ' , ' ; ) ; ; + = ! ",
"~ { ] ^ . / ( _ : < + / _ + + [ ( } | ! 1 ",
"2 3 4 = . . _ ( _ ( . _ _ [ : [ . = 5 6 2 ",
"7 3 8 = . . . . . : . : . . . _ . 9 4 * 7 ",
"0 3 = . . ( + + a a a a + + + + . . = 3 b ",
"c d ^ + [ ; ) e f g h f e ' & ' + + . ! i ",
"j ! . - , ; k l = m m = l k ; @ , > < ! n ",
"3 o + p q r 3 . m s s m . 1 r @ t u > o v ",
"d | ; w u x 3 # y z z y # 3 x # @ @ ; = A ",
"! 9 ; % B C 3 . @ @ @ @ . 3 C D # # @ . E ",
"| < B # # F . 3 o o o o 3 = G H I I J / 4 ",
"= - K D L H r f M 2 2 M f r N O P P D , . ",
"^ ' D Q H R y 7 o G S o 7 y T T H H D ; / ",
"+ q D H N T T T M g g M T T T T R H D @ + ",
". J L R U T V W W X V V Y V Z V Y T L ` + ",
"- B D  .T X V T  .X T V U V V W Z  .H % ) ",
". ; # D H H H H H H ..H H O N ..H +.$ p / ",
"o } / ; w @ u u @ w u t @ @ @ @ @ ; , . 4 ",
"E 8 @.#.E ! o o @.E o #.$.E E E o o o #.o ",
"5 5 o 5 %.] o o o | 5 %.| ] %.| o 5 ] %.= "};
