/* XPM */
static char * menuhilite_xpm[] = {
"21 21 250 2",
"  	c None",
". 	c #490706",
"+ 	c #410304",
"@ 	c #440B0B",
"# 	c #430B0B",
"$ 	c #470A0A",
"% 	c #4B0909",
"& 	c #4E0909",
"* 	c #4F0909",
"= 	c #301111",
"- 	c #2F1010",
"; 	c #360E0E",
"> 	c #400C0C",
", 	c #490909",
"' 	c #4A0909",
") 	c #4C0909",
"! 	c #4D0909",
"~ 	c #4B0707",
"{ 	c #420404",
"] 	c #1F1515",
"^ 	c #1E1515",
"/ 	c #271212",
"( 	c #340E0E",
"_ 	c #3E0C0C",
": 	c #420B0B",
"< 	c #420A0B",
"[ 	c #420A0A",
"} 	c #430A0A",
"| 	c #440A0A",
"1 	c #45090A",
"2 	c #460909",
"3 	c #470909",
"4 	c #480909",
"5 	c #420405",
"6 	c #1A1616",
"7 	c #191616",
"8 	c #1E1313",
"9 	c #2B1010",
"0 	c #360D0D",
"a 	c #3B0C0C",
"b 	c #3B0B0B",
"c 	c #3C0B0B",
"d 	c #3E0B0B",
"e 	c #3F0A0A",
"f 	c #410A0A",
"g 	c #430A09",
"h 	c #440909",
"i 	c #430404",
"j 	c #181716",
"k 	c #181516",
"l 	c #1D1313",
"m 	c #271111",
"n 	c #310E0F",
"o 	c #340D0D",
"p 	c #340C0C",
"q 	c #360C0C",
"r 	c #380B0B",
"s 	c #390A0B",
"t 	c #3C0A0A",
"u 	c #3E0A0A",
"v 	c #410909",
"w 	c #430909",
"x 	c #4B0708",
"y 	c #430505",
"z 	c #1B1616",
"A 	c #1D1414",
"B 	c #251111",
"C 	c #2C0F0F",
"D 	c #2D0F0F",
"E 	c #2D0E0E",
"F 	c #2D0D0D",
"G 	c #2F0D0D",
"H 	c #320C0C",
"I 	c #340B0B",
"J 	c #370B0B",
"K 	c #3A0A0A",
"L 	c #3D0A0A",
"M 	c #400909",
"N 	c #4D0808",
"O 	c #440505",
"P 	c #1E1615",
"Q 	c #1E1415",
"R 	c #201313",
"S 	c #241111",
"T 	c #261011",
"U 	c #27100F",
"V 	c #270F0F",
"W 	c #280E0E",
"X 	c #2C0D0D",
"Y 	c #2F0C0C",
"Z 	c #320B0B",
"` 	c #360A0B",
" .	c #390A0A",
"..	c #3D090A",
"+.	c #450909",
"@.	c #4D0809",
"#.	c #450505",
"$.	c #1F1414",
"%.	c #1F1413",
"&.	c #201212",
"*.	c #211112",
"=.	c #201011",
"-.	c #1F1010",
";.	c #210F0F",
">.	c #250E0D",
",.	c #290D0D",
"'.	c #2D0C0C",
").	c #310B0B",
"!.	c #360A0A",
"~.	c #3E0909",
"{.	c #4D0908",
"].	c #450605",
"^.	c #1D1515",
"/.	c #1C1414",
"(.	c #1B1414",
"_.	c #1A1313",
":.	c #1A1212",
"<.	c #191212",
"[.	c #171212",
"}.	c #181111",
"|.	c #1A0F0F",
"1.	c #1F0E0F",
"2.	c #240D0D",
"3.	c #280C0C",
"4.	c #2D0B0B",
"5.	c #320A0A",
"6.	c #370A0A",
"7.	c #3C0909",
"8.	c #450506",
"9.	c #181718",
"0.	c #161716",
"a.	c #161616",
"b.	c #151515",
"c.	c #151414",
"d.	c #131313",
"e.	c #121213",
"f.	c #121212",
"g.	c #151110",
"h.	c #1A0E0F",
"i.	c #1F0E0E",
"j.	c #290B0B",
"k.	c #2F0A0B",
"l.	c #340A0A",
"m.	c #3A0909",
"n.	c #4F0809",
"o.	c #460605",
"p.	c #181818",
"q.	c #161615",
"r.	c #141514",
"s.	c #131413",
"t.	c #151010",
"u.	c #190F0F",
"v.	c #1F0D0E",
"w.	c #2F0B0B",
"x.	c #390909",
"y.	c #3F0909",
"z.	c #470606",
"A.	c #1B1516",
"B.	c #1B1415",
"C.	c #1B1313",
"D.	c #181212",
"E.	c #181211",
"F.	c #171111",
"G.	c #1E0E0E",
"H.	c #230D0D",
"I.	c #2D0C0B",
"J.	c #310B0A",
"K.	c #1E1414",
"L.	c #1E1212",
"M.	c #1E1111",
"N.	c #1D1110",
"O.	c #1D1010",
"P.	c #200F0F",
"Q.	c #280D0D",
"R.	c #2C0C0C",
"S.	c #300B0B",
"T.	c #340B0A",
"U.	c #39090A",
"V.	c #420909",
"W.	c #480707",
"X.	c #1D1514",
"Y.	c #1F1313",
"Z.	c #211313",
"`.	c #231111",
" +	c #231010",
".+	c #23100F",
"++	c #220F0F",
"@+	c #250E0F",
"#+	c #330B0B",
"$+	c #3B0909",
"%+	c #490707",
"&+	c #1A1515",
"*+	c #1E1413",
"=+	c #281010",
"-+	c #290F0F",
";+	c #2A0E0E",
">+	c #310C0C",
",+	c #370A0B",
"'+	c #3B0A0A",
")+	c #490607",
"!+	c #1A1716",
"~+	c #1A1516",
"{+	c #201213",
"]+	c #2E0E0E",
"^+	c #300D0D",
"/+	c #350B0B",
"(+	c #251211",
"_+	c #320E0E",
":+	c #330D0E",
"<+	c #330D0D",
"[+	c #350C0C",
"}+	c #370B0C",
"|+	c #390B0B",
"1+	c #400A0A",
"2+	c #4A0707",
"3+	c #1C1516",
"4+	c #211414",
"5+	c #2B1111",
"6+	c #390D0D",
"7+	c #390C0C",
"8+	c #3A0B0B",
"9+	c #4A0708",
"0+	c #320F0F",
"a+	c #3B0D0D",
"b+	c #3F0B0B",
"c+	c #4C0707",
"d+	c #2A1212",
"e+	c #321010",
"f+	c #440B0A",
"g+	c #450A0A",
"h+	c #4C0708",
"i+	c #704D4D",
"j+	c #7A5656",
"k+	c #855E5E",
"l+	c #8E6767",
"m+	c #967171",
"n+	c #9D7A7A",
"o+	c #A48484",
"p+	c #AB8D8D",
"q+	c #B29797",
"r+	c #BAA0A0",
"s+	c #C1AAAA",
"t+	c #C8B3B3",
"u+	c #CFBDBD",
"v+	c #D6C6C6",
"w+	c #DED1D1",
"x+	c #E4DADA",
"y+	c #EBE3E3",
"z+	c #F3EEEE",
"A+	c #FAF8F8",
". + @ # $ % & * * * * * * * * * * * * * * ",
". + = - ; > $ , , , , ' ' % % ) ) ! ! & & ",
"~ { ] ^ / ( _ : < [ } | 1 2 3 4 , ' ) ! & ",
"~ 5 6 7 8 9 0 a a b c d e f g h 2 4 ' ) & ",
"~ i j k l m n o p p q r s t u v w 2 4 % ! ",
"x y z 7 A B C D E F G H I J K L M w 2 , ! ",
"N O P Q R S T U V V W X Y Z `  ...v +.4 ! ",
"@.#.$.%.R &.*.=.-.-.;.>.,.'.).!.K ~.w 3 ) ",
"{.].^./.(._.:.<.[.}.|.1.2.3.4.5.6.7.v 2 ) ",
"& 8.9.0.a.b.c.d.e.f.g.h.i.2.j.k.l.m.M +.% ",
"n.o.p.0.q.b.r.s.e.f.t.u.v.2.j.w.l.x.y.+.) ",
"* z.A.B.C._._.D.E.F.|.G.H.3.I.J.!.7.v 2 ) ",
"* z.] ^ K.L.L.M.N.O.P.H.Q.R.S.T.U.~.V.3 ) ",
"* W.^ X.Y.Z.`. +.+++@+Q.R.S.#+6.$+y.h 4 ) ",
"* %+6 &+*+S =+-+-+W ;+'.>+I ,+'+~.v +., ! ",
"* )+!+~+{+m D ]+]+F ^+H /+J K L M w 3 ' ! ",
"* %+^.K.(+D _+:+o <+[+}+|+'+u 1+w +.4 ' ! ",
"* 2+3+4+5+( 6+7+7+7+8+c L e f w +.3 , % ! ",
"* 9+^ / 0+a+b+b+b+d e 1+[ } +.2 4 , % ) & ",
"* c+d+e+a+: f+| | | g+g+2 3 4 , ' % ) ! & ",
"* h+i+j+k+l+m+n+o+p+q+r+s+t+u+v+w+x+y+z+A+"};
