/* XPM */
static char * tbarfcs_xpm[] = {
"21 21 84 1",
" 	c None",
".	c #262626",
"+	c #272727",
"@	c #292929",
"#	c #2A2A2A",
"$	c #2A2B2A",
"%	c #29292A",
"&	c #282827",
"*	c #222322",
"=	c #252525",
"-	c #282727",
";	c #282828",
">	c #272827",
",	c #272728",
"'	c #282728",
")	c #272828",
"!	c #232323",
"~	c #202121",
"{	c #232222",
"]	c #242524",
"^	c #252625",
"/	c #272626",
"(	c #272726",
"_	c #262627",
":	c #262726",
"<	c #262727",
"[	c #272627",
"}	c #252526",
"|	c #252524",
"1	c #212121",
"2	c #1F1F1F",
"3	c #222222",
"4	c #242425",
"5	c #252424",
"6	c #222223",
"7	c #202020",
"8	c #242423",
"9	c #262526",
"0	c #201F1F",
"a	c #202120",
"b	c #202021",
"c	c #222323",
"d	c #212120",
"e	c #212221",
"f	c #292928",
"g	c #282829",
"h	c #292829",
"i	c #292828",
"j	c #282929",
"k	c #212222",
"l	c #242424",
"m	c #282928",
"n	c #2A2929",
"o	c #292A29",
"p	c #2A2A29",
"q	c #232322",
"r	c #2A292A",
"s	c #232324",
"t	c #2B2A2B",
"u	c #2B2A2A",
"v	c #2B2B2B",
"w	c #242324",
"x	c #2B2C2C",
"y	c #2C2C2B",
"z	c #2B2C2B",
"A	c #2B2B2C",
"B	c #2C2C2C",
"C	c #2A2A2B",
"D	c #2C2C2D",
"E	c #2D2D2D",
"F	c #2C2D2C",
"G	c #2D2C2D",
"H	c #2C2D2D",
"I	c #2D2E2E",
"J	c #2D2D2E",
"K	c #2E2E2D",
"L	c #2E2D2D",
"M	c #2E2E2E",
"N	c #2E2D2E",
"O	c #2D2E2D",
"P	c #232423",
"Q	c #232424",
"R	c #242323",
"S	c #252425",
".+@@######$######%@&.",
"*=+-;>&,';'',';);;+=!",
"~{]^./(_:<+/_++[(}|!1",
"234=.._(_(.__[:[.=562",
"738=.....:.:..._.94*7",
"03=..(++(+++++++..=3a",
"bc^+[;);';&'&'&'++.!d",
"e!.-,;ffgh;ijf;@,><!k",
"3l+min@@@o@@@p@@hf>lq",
"c|;jf###r#######@@;=s",
"!9;%ptutvvvvvvuv##@.w",
"|<p##xxyyxzvvAxBuuo/4",
"=-CvABBBDBBBEFFGzzv,.",
"^'vyBHEEEEEEEEEEBBv;/",
"+ivBFEEEEEEEEEEEHBv@+",
".oAHIEJKKLJJMJNJMEAr+",
"-pvOELJEOLEJIJJKNOB%)",
".;#vBBBBBBDBBGFDBx$m/",
"l}/;j@ff@jfh@@@@@;,.4",
"w8PQw!llPwlQRwwwlllQl",
"55l5S]lll|5S|]S|l5]S="};
