/* XPM */
static char * tbarufcs_xpm[] = {
"21 21 105 2",
"  	c None",
". 	c #151515",
"+ 	c #151615",
"@ 	c #151516",
"# 	c #161615",
"$ 	c #161616",
"% 	c #161515",
"& 	c #161516",
"* 	c #151616",
"= 	c #161717",
"- 	c #171616",
"; 	c #161716",
"> 	c #171716",
", 	c #161617",
"' 	c #171717",
") 	c #171617",
"! 	c #171718",
"~ 	c #181817",
"{ 	c #181718",
"] 	c #171817",
"^ 	c #181717",
"/ 	c #181818",
"( 	c #181918",
"_ 	c #181819",
": 	c #191819",
"< 	c #191818",
"[ 	c #181919",
"} 	c #191919",
"| 	c #191918",
"1 	c #191A19",
"2 	c #19191A",
"3 	c #191A1A",
"4 	c #1A1A1A",
"5 	c #1A191A",
"6 	c #1A1A19",
"7 	c #1A1B1A",
"8 	c #1B1A1A",
"9 	c #1A1A1B",
"0 	c #1B1B1A",
"a 	c #1B1A1B",
"b 	c #1A1B1B",
"c 	c #1B1B1B",
"d 	c #1B1C1B",
"e 	c #1C1B1B",
"f 	c #1C1C1B",
"g 	c #1C1B1C",
"h 	c #1B1C1C",
"i 	c #1C1C1C",
"j 	c #1C1C1D",
"k 	c #1D1C1D",
"l 	c #1D1D1C",
"m 	c #1D1C1C",
"n 	c #1D1D1D",
"o 	c #1E1E1D",
"p 	c #1D1E1E",
"q 	c #1D1E1D",
"r 	c #1D1D1E",
"s 	c #1E1E1E",
"t 	c #1E1D1D",
"u 	c #1F1E1E",
"v 	c #1E1E1F",
"w 	c #1F1F1F",
"x 	c #1E1F1E",
"y 	c #1F1E1F",
"z 	c #1F1F1E",
"A 	c #1E1F1F",
"B 	c #1F1F20",
"C 	c #201F1F",
"D 	c #1F201F",
"E 	c #202020",
"F 	c #201F20",
"G 	c #1F2020",
"H 	c #202120",
"I 	c #202021",
"J 	c #202121",
"K 	c #212120",
"L 	c #212020",
"M 	c #212121",
"N 	c #212021",
"O 	c #222121",
"P 	c #222221",
"Q 	c #212221",
"R 	c #212122",
"S 	c #212222",
"T 	c #222122",
"U 	c #222222",
"V 	c #222223",
"W 	c #232223",
"X 	c #222322",
"Y 	c #222323",
"Z 	c #232222",
"` 	c #232323",
" .	c #232322",
"..	c #232324",
"+.	c #242324",
"@.	c #242423",
"#.	c #232423",
"$.	c #232424",
"%.	c #242424",
"&.	c #242323",
"*.	c #252424",
"=.	c #252425",
"-.	c #242524",
";.	c #252524",
">.	c #252525",
". . . . . . . . . . + . . . . . . @ . # . ",
"+ $ $ % $ + # @ & $ & & @ & $ * $ $ $ $ $ ",
"= - ; ; $ - > , ; = ' - , ' ' ) > , > ' ' ",
"' ' ! ' ' ' ! ~ ! ~ ' ! ! { ] { ' ' ^ ! ' ",
"/ / ~ / / / / / / ( / ( / / / _ / : _ ( / ",
"< [ } } [ | } } | } } } } } } } } } } } 1 ",
"2 3 1 4 5 4 3 4 5 4 6 5 6 5 6 5 4 4 4 4 6 ",
"7 4 4 8 9 4 0 0 9 a 4 8 b 0 4 c 9 7 b 4 b ",
"c c c d e e c c c d c c c f c c g f d c f ",
"h f i h f i i i g i i i i i i i i i i i j ",
"i k i j l k m k n n n n n n m n n n n n k ",
"o p o n n p p o o p q n n r p s t t q t r ",
"s u v s v s s s v s s s w x x y x x w v w ",
"x y w z w A w w w w w w B C w w w D C w C ",
"E C F C D G E E E E E G E E E E G F E E E ",
"E H I J J E I K K L I I M I N I M M I N M ",
"O P M Q M O R M Q O M R S R R P T Q U R S ",
"U U U U U U U U U U V U U W X V U Y X X Z ",
"` V Z ` Y `  . .` Y  .W ` ` ` ` ` ` ..` ..",
"+.@.#.$.+.` %.%.#.+.%.$.&.+.+.+.%.%.%.$.%.",
"*.*.%.*.=.-.%.%.%.;.*.=.;.-.=.;.%.*.-.=.>."};
